<?xml version="1.0" encoding="utf-8"?>
<!-- Generator: Adobe Illustrator 21.0.0, SVG Export Plug-In . SVG Version: 6.00 Build 0)  -->
<svg version="1.1" id="Layer_1" xmlns="http://www.w3.org/2000/svg" xmlns:xlink="http://www.w3.org/1999/xlink" x="0px" y="0px"
	 viewBox="0 0 16 16" style="enable-background:new 0 0 16 16;" xml:space="preserve">
<style type="text/css">
	.st0{fill:#FFFFFF;}
</style>
<path class="st0" d="M10.8,11.2c-3.9,0.2-8.2,1.7-8.7,1.9l0.5-1.5C4,11,7.4,9.8,11.4,9.5C11.4,9.8,10.9,10.9,10.8,11.2L10.8,11.2z
	 M12.3,7.2c0,0-0.2,0.4-0.4,1c-1.6,0.1-4,0.6-5.3,1c0.6-0.6,4.6-4.6,4.6-4.6c1.5,1,3.1,2.3,3.1,2.3L12.3,7.2L12.3,7.2z M3,7.4
	C3.8,7,6.3,6.3,8.6,5.7c0,0-4.5,4.2-5.8,5.4l1-2.8C3.1,8.5,2.7,8.5,1.6,8.8L3,7.4L3,7.4z M8.6,2.9c0.4,0.2,1.8,1.2,2.3,1.5
	c-1.6,0-4.8,0.7-6.2,1.2C5.8,4.8,7.9,3.3,8.6,2.9L8.6,2.9z"/>
</svg>
